<svg width="75" height="75" viewBox="0 0 75 75" fill="none" xmlns="http://www.w3.org/2000/svg">
<g filter="url(#filter0_d_262_82)">
<circle cx="37.5" cy="29.5" r="27.5" fill="#FF8481"/>
</g>
<path d="M33.9872 19.858C32.5569 20.6113 31.9752 23.2145 32.8238 25.0929C33.3769 26.323 34.7214 26.8951 36.0277 26.447C37.2197 26.0369 37.6869 24.5494 37.2864 22.4516C37.048 21.212 36.5999 20.3824 35.8847 19.8961C35.3698 19.5529 34.607 19.5338 33.9872 19.858Z" fill="white"/>
<path d="M40.1851 19.8298C39.222 20.3352 38.5641 21.9276 38.5545 23.7965C38.545 25.5987 39.1839 26.4569 40.6142 26.5713C42.3687 26.7144 43.532 25.3794 43.532 23.2149C43.532 21.5938 42.9313 20.3542 41.8919 19.8203C41.4247 19.5819 40.6428 19.5914 40.1851 19.8298Z" fill="white"/>
<path d="M29.229 24.1298C28.8857 24.2633 28.4757 24.6829 28.2564 25.1215C28.0085 25.5888 27.9226 26.6567 28.0752 27.3528C28.3136 28.4875 29.1432 29.6795 29.9442 30.0418C30.4019 30.2516 31.1647 30.2707 31.6891 30.0895C33.3674 29.4983 33.5295 27.7724 32.1182 25.6269C31.26 24.3301 30.1635 23.758 29.229 24.1298Z" fill="white"/>
<path d="M45.1912 24.3017C44.0279 24.9787 42.855 26.9621 42.8646 28.2589C42.8741 29.613 44.3807 30.5474 45.8396 30.1088C47.2604 29.6892 48.376 27.1624 47.8802 25.5127C47.4797 24.2064 46.2973 23.6724 45.1912 24.3017Z" fill="white"/>
<path d="M37.0957 27.2482C36.4759 27.5438 36.1517 27.8775 35.2172 29.2029C34.5784 30.0993 33.93 30.8526 32.9287 31.8633C31.26 33.5511 30.9072 34.1137 30.9072 35.1721C30.8977 36.0971 31.1552 36.7359 31.7559 37.3367C32.1278 37.7085 32.3852 37.8706 32.7571 37.9851C33.5295 38.2139 34.8072 38.1758 35.9992 37.8993C37.3818 37.575 38.6023 37.575 40.0326 37.9088C40.9194 38.109 41.2722 38.1472 42.1018 38.1186C42.96 38.09 43.1793 38.0423 43.5893 37.823C44.5143 37.3462 45.0578 36.3831 45.0578 35.2007C45.0578 34.1232 44.7527 33.6274 42.9886 31.8061C41.9874 30.7858 41.2436 29.9181 40.7764 29.2411C39.594 27.5152 39.1554 27.1719 38.0969 27.1052C37.6297 27.0765 37.3818 27.1147 37.0957 27.2482Z" fill="white"/>
<defs>
<filter id="filter0_d_262_82" x="0.2" y="0.2" width="74.6" height="74.6" filterUnits="userSpaceOnUse" color-interpolation-filters="sRGB">
<feFlood flood-opacity="0" result="BackgroundImageFix"/>
<feColorMatrix in="SourceAlpha" type="matrix" values="0 0 0 0 0 0 0 0 0 0 0 0 0 0 0 0 0 0 127 0" result="hardAlpha"/>
<feOffset dy="8"/>
<feGaussianBlur stdDeviation="4.9"/>
<feComposite in2="hardAlpha" operator="out"/>
<feColorMatrix type="matrix" values="0 0 0 0 1 0 0 0 0 0.760212 0 0 0 0 0.754167 0 0 0 1 0"/>
<feBlend mode="normal" in2="BackgroundImageFix" result="effect1_dropShadow_262_82"/>
<feBlend mode="normal" in="SourceGraphic" in2="effect1_dropShadow_262_82" result="shape"/>
</filter>
</defs>
</svg>
