<svg width="1920" height="86" viewBox="0 0 1920 86" fill="none" xmlns="http://www.w3.org/2000/svg">
<g opacity="0.3">
<path d="M-9.45947 83.5569C482.942 74.2017 836.811 27.0792 969.593 0V83.5569H-9.45947C-118.997 85.638 -235.39 85.8501 -357.729 83.5569H-9.45947Z" fill="white"/>
<path d="M1947.96 83.5569C1455.56 74.2017 1101.69 27.0792 968.907 0V83.5569H1947.96C2057.5 85.638 2173.89 85.8501 2296.23 83.5569H1947.96Z" fill="white"/>
</g>
<path d="M254.751 78.5C614.225 71.6703 872.564 37.269 969.5 17.5V78.5H254.751C174.785 80.0193 89.813 80.1742 0.5 78.5H254.751Z" fill="white"/>
<path d="M1683.75 78.5C1324.27 71.6703 1065.94 37.269 969 17.5V78.5H1683.75C1763.72 80.0193 1848.69 80.1742 1938 78.5H1683.75Z" fill="white"/>
</svg>
