<svg width="1920" height="86" viewBox="0 0 1920 86" fill="none" xmlns="http://www.w3.org/2000/svg">
<g opacity="0.5">
<path d="M-9.45947 1.64134C482.942 10.9965 836.811 58.119 969.593 85.1982V1.64134H-9.45947C-118.997 -0.439766 -235.39 -0.651901 -357.729 1.64134H-9.45947Z" fill="#FFE7E6"/>
<path d="M1947.96 1.64134C1455.56 10.9965 1101.69 58.119 968.907 85.1982V1.64134H1947.96C2057.5 -0.439766 2173.89 -0.651901 2296.23 1.64134H1947.96Z" fill="#FFE7E6"/>
</g>
<path d="M254.751 6.69824C614.225 13.5279 872.564 47.9293 969.5 67.6982V6.69824H254.751C174.785 5.17895 89.813 5.02408 0.5 6.69824H254.751Z" fill="#FFE7E6"/>
<path d="M1683.75 6.69824C1324.27 13.5279 1065.94 47.9293 969 67.6982V6.69824H1683.75C1763.72 5.17895 1848.69 5.02408 1938 6.69824H1683.75Z" fill="#FFE7E6"/>
</svg>
