<svg width="78" height="78" viewBox="0 0 78 78" fill="none" xmlns="http://www.w3.org/2000/svg">
<circle cx="39" cy="39" r="39" fill="#FF8D8A"/>
<path d="M34.5339 27.1542L33.7699 28.3084L35.0216 30.6818C35.7044 31.9823 37.7039 35.7374 39.4433 39.0212L42.6132 44.9709L43.0197 44.5808C43.2472 44.3695 43.7024 44.0769 44.0438 43.9306L44.6453 43.6867L44.3039 42.9877C43.9788 42.3537 35.363 26.0813 35.3142 26.0163C35.298 26 34.9566 26.5202 34.5339 27.1542ZM41.0689 38.566C41.0689 39.1025 41.0364 39.135 40.4999 39.135C39.9635 39.135 39.931 39.1025 39.931 38.566C39.931 38.0296 39.9635 37.9971 40.4999 37.9971C41.0364 37.9971 41.0689 38.0296 41.0689 38.566Z" fill="white"/>
<path d="M45.0517 27.2191C44.6941 27.8856 44.3852 28.5034 44.3527 28.5847C44.3202 28.6659 44.9054 28.731 45.6695 28.731C46.6936 28.731 47.0675 28.6659 47.1325 28.5034C47.1813 28.3896 46.8724 27.7718 46.466 27.1379L45.702 25.9999L45.0517 27.2191Z" fill="white"/>
<path d="M24 30.6005V31.1694H28.9581H33.9163L33.6399 30.6005L33.3635 30.0315H28.6818H24V30.6005Z" fill="white"/>
<path d="M39.0694 30.6005L39.3458 31.1694H48.1729H57V30.6005V30.0315H47.8965H38.7931L39.0694 30.6005Z" fill="white"/>
<path d="M40.2074 32.7463C40.3537 33.0064 40.4837 33.2177 40.5 33.234C40.5 33.2502 40.63 33.0389 40.7764 32.7788L41.0527 32.3074H40.4837H39.931L40.2074 32.7463Z" fill="white"/>
<path d="M41.8005 33.3316C41.4917 33.9005 41.2316 34.437 41.2316 34.502C41.2316 34.7134 42.4345 37.0217 42.5483 37.0217C42.5971 37.0217 42.7922 36.7129 42.971 36.3227C43.1661 35.9488 43.735 34.8922 44.2227 33.9656L45.133 32.3074H43.7513H42.3858L41.8005 33.3316Z" fill="white"/>
<path d="M37.3625 41.736L36.3384 43.6705L36.9561 43.9306C37.2975 44.0769 37.7527 44.3695 37.9803 44.5808L38.3867 44.9709L39.1019 43.6217L39.8335 42.2724L39.1832 41.037C38.8418 40.3542 38.5167 39.7852 38.4679 39.7852C38.4192 39.7852 37.9152 40.6631 37.3625 41.736Z" fill="white"/>
<path d="M32.6971 44.9709C31.4453 45.2798 30.4212 46.2064 29.9498 47.4581C29.7059 48.0596 29.6734 48.7261 29.7222 51.9936L29.771 55.83L30.2586 56.6266C30.9577 57.732 32.0143 58.366 33.3473 58.4473C34.6153 58.5285 35.3956 58.2847 36.2246 57.5369C37.5414 56.3502 37.5739 56.2364 37.6227 50.9694C37.6714 45.8162 37.6389 45.5561 36.6798 45.0684C36.1759 44.8083 33.6399 44.7433 32.6971 44.9709ZM34.6803 46.2064C35.4931 46.5477 35.8508 46.8891 36.2084 47.6694C36.4685 48.2384 36.5173 48.7748 36.5173 51.7172C36.5173 54.8546 36.4847 55.1798 36.1759 55.83C35.2818 57.667 32.632 57.9108 31.3803 56.2689L30.9089 55.6674L30.8601 51.9936C30.8276 49.9778 30.8439 48.1734 30.9089 47.962C31.0389 47.4418 31.9493 46.4502 32.5345 46.1901C33.1847 45.8975 33.965 45.9138 34.6803 46.2064Z" fill="white"/>
<path d="M33.0059 47.2631C32.8108 47.3281 32.5019 47.6045 32.3068 47.8483C31.9655 48.2872 31.9492 48.4173 31.998 51.8636L32.0467 55.4237L32.5019 55.8138C33.1684 56.3828 34.0788 56.3503 34.7615 55.7326L35.298 55.2611L35.3467 51.9124C35.3955 48.2222 35.3142 47.8158 34.4039 47.3444C33.8837 47.068 33.5261 47.0518 33.0059 47.2631Z" fill="white"/>
<path d="M44.2226 45.1172C43.3611 45.6699 43.3285 45.9625 43.3773 51.0182C43.4261 55.4236 43.4423 55.6674 43.7837 56.3014C44.2226 57.1142 45.2955 58.0734 46.0596 58.3335C46.3684 58.431 47.0837 58.4798 47.6527 58.4472C48.9857 58.366 50.0423 57.732 50.7414 56.6266L51.229 55.83L51.2778 51.9936C51.3266 47.7507 51.2453 47.2793 50.2862 46.1738C49.4246 45.1985 48.7093 44.9384 46.596 44.8734C44.9542 44.8083 44.6615 44.8408 44.2226 45.1172ZM48.433 46.1901C49.0345 46.4339 49.9611 47.4256 50.0911 47.962C50.1561 48.1734 50.1724 49.9778 50.1399 51.9936L50.0911 55.6674L49.6359 56.2527C49.0507 57.033 48.3517 57.3743 47.3926 57.3743C46.3034 57.3743 45.2793 56.7566 44.8241 55.83C44.5152 55.1798 44.4827 54.8384 44.4827 51.766C44.4827 47.5556 44.6615 46.9704 46.1896 46.2714C46.9699 45.9137 47.7177 45.8812 48.433 46.1901Z" fill="white"/>
<path d="M46.4985 47.3931C45.6694 47.9133 45.5881 48.336 45.6532 51.9611L45.7019 55.2611L46.2384 55.7326C46.7911 56.2365 47.6202 56.3665 48.2379 56.0414C48.9369 55.6513 49.0344 55.1148 49.0344 51.5872V48.2385L48.5955 47.7508C48.0103 47.1005 47.1975 46.9705 46.4985 47.3931Z" fill="white"/>
</svg>
