<svg width="78" height="78" viewBox="0 0 78 78" fill="none" xmlns="http://www.w3.org/2000/svg">
<circle cx="39" cy="39" r="39" fill="#FF8D8A"/>
<path d="M32.1611 24.0805C31.1469 24.3926 30.1976 25.2898 29.9636 26.1351C29.8855 26.4081 29.8205 27.0583 29.8205 27.5654V28.5146H39.3909H48.9613L48.9093 27.3704C48.8312 25.797 48.3501 24.9388 47.1798 24.3146C46.6727 24.0285 46.5687 24.0285 39.5729 24.0025C35.672 23.9895 32.3432 24.0285 32.1611 24.0805Z" fill="white"/>
<path d="M28.7543 32.9747L28.0001 35.6144V43.2213C28.0001 51.6864 27.9741 51.3613 28.9103 52.2715C29.8725 53.2077 29.2484 53.1557 39.3779 53.1557H48.4801L49.0133 52.8697C49.7024 52.5056 50.4046 51.6864 50.5997 51.0232C50.7167 50.6721 50.7557 48.3575 50.7557 43.0652L50.7427 35.6014L50.0015 33.0007L49.2473 30.4001L39.3779 30.3611L29.4954 30.3351L28.7543 32.9747ZM41.0683 32.8707C45.1383 33.7289 48.025 37.7469 47.5049 41.8559C47.2578 43.7544 46.5557 45.1978 45.1643 46.6021C43.5259 48.2535 41.6405 49.0597 39.3779 49.0597C35.659 49.0597 32.5382 46.6801 31.4329 43.0002C31.1078 41.96 31.1208 39.7884 31.4329 38.7222C32.0961 36.4986 33.7085 34.5741 35.672 33.5989C37.4794 32.7147 39.2088 32.4806 41.0683 32.8707Z" fill="white"/>
<path d="M38.0126 36.4726C37.6225 36.6156 37.4924 36.7976 37.4924 37.2397C37.4924 37.9419 38.4027 38.267 38.9228 37.7469C39.2349 37.4348 39.2479 37.1227 38.9878 36.7456C38.7537 36.4075 38.4287 36.3165 38.0126 36.4726Z" fill="white"/>
<path d="M40.0801 36.4987C39.2999 36.8758 39.5469 38.0071 40.4051 38.0071C41.4324 38.0071 41.5754 36.7588 40.6002 36.4077C40.4832 36.3687 40.2491 36.4077 40.0801 36.4987Z" fill="white"/>
<path d="M35.828 37.5778C35.2949 37.7859 35.4249 38.8262 35.9971 39.0472C36.5692 39.2683 37.1023 38.8782 37.1023 38.254C37.1023 37.6689 36.4522 37.3308 35.828 37.5778Z" fill="white"/>
<path d="M41.9395 37.5779C41.4064 37.786 41.5364 38.8262 42.1086 39.0473C42.6807 39.2684 43.2138 38.8783 43.2138 38.2411C43.2138 37.643 42.5897 37.3179 41.9395 37.5779Z" fill="white"/>
<path d="M38.2076 39.6193C36.2441 40.2305 34.9308 42.5451 35.646 44.1445C36.1271 45.2497 37.0633 45.6008 38.5197 45.2237C39.2869 45.0287 39.4039 45.0287 40.3011 45.2367C41.1073 45.4318 41.3284 45.4448 41.7965 45.3017C43.721 44.7296 43.786 42.129 41.9265 40.4515C40.9123 39.5283 39.4949 39.2162 38.2076 39.6193Z" fill="white"/>
</svg>
