<svg width="93" height="113" viewBox="0 0 93 113" fill="none" xmlns="http://www.w3.org/2000/svg">
<rect width="93" height="113" rx="30" fill="#1268AE"/>
<path d="M41.6116 23.2102C38.0993 23.9127 33.0064 27.7762 30.46 31.6397C28.4404 34.713 28.0014 36.2935 28.0014 41.0352C27.9136 49.8159 31.9527 56.2259 39.592 59.3869C42.314 60.5284 42.4019 60.7041 42.4019 66.1481V71.7678H38.5383C33.0942 71.7678 31.8649 72.4703 31.8649 75.2801C31.8649 78.09 33.0942 78.7924 38.5383 78.7924H42.4019V82.5682C42.4019 86.3439 44.2458 89.3293 46.6166 89.3293C48.724 89.3293 50.3045 86.4317 50.3045 82.656V78.7924H54.9583C61.1927 78.7924 63.5635 76.3338 60.3146 73.1727C59.4365 72.2947 57.417 71.7678 54.6071 71.7678H50.3045V66.1481C50.3045 60.7041 50.3923 60.5284 53.2022 59.4748C56.9779 57.982 62.422 52.7136 64.0025 49.0257C64.705 47.4451 65.2318 43.845 65.2318 41.123C65.2318 31.7275 57.856 23.9127 48.3728 23.1224C45.8263 22.9468 42.7531 22.9468 41.6116 23.2102ZM51.9729 30.3226C56.8023 32.6934 58.6463 35.9423 58.6463 42.001C58.5585 46.8305 58.3828 47.4451 55.3096 50.4306C52.3241 53.5038 51.7095 53.6795 46.88 53.7673C40.8213 53.7673 37.5724 51.9233 35.2016 47.0939C33.3577 43.4938 33.2699 40.2449 34.6748 36.9082C37.8359 29.7958 45.2995 26.9859 51.9729 30.3226Z" fill="white"/>
</svg>
