<svg width="93" height="113" viewBox="0 0 93 113" fill="none" xmlns="http://www.w3.org/2000/svg">
<rect width="93" height="113" rx="30" fill="#1268AE"/>
<path d="M55.343 28.966C53.2356 30.1075 53.3234 33.8832 55.4308 35.0247C56.3967 35.4638 58.2406 35.9028 59.6455 35.9028C61.9285 35.9028 61.7529 36.1662 55.782 42.225C51.0404 46.9666 49.1964 48.2837 48.3184 47.5812C47.7037 47.0544 45.1573 46.1763 42.6987 45.5616C29.7031 42.3128 17.1467 55.3961 20.5712 68.6551C22.7663 77.4358 32.6886 84.3726 41.0303 83.0555C51.0404 81.475 57.7138 73.8357 57.7138 64.0012C57.7138 61.2792 57.0991 57.9425 56.3089 56.362L54.9039 53.6399L61.3139 47.23L67.8117 40.82V44.4201C67.8117 47.3178 68.2507 48.3715 69.6556 49.074C71.0605 49.8642 71.8508 49.7764 73.1679 48.5471C74.5728 47.3178 74.8363 45.8251 74.8363 38.8883C74.8363 28.2635 74.5728 28.0001 64.475 28.0001C60.2602 28.0001 56.1332 28.4392 55.343 28.966ZM47.6159 55.2205C50.9526 58.5572 51.1282 58.9962 51.1282 64.0891C51.1282 69.1819 50.9526 69.7087 47.7037 72.8698C44.5426 76.0309 43.928 76.2943 39.2742 76.2943C31.2837 76.2943 26.5421 71.7283 26.5421 64.0012C26.5421 56.362 31.4593 51.7082 39.5376 51.7082C43.6646 51.7082 44.367 51.9716 47.6159 55.2205Z" fill="white"/>
</svg>
