<svg width="40" height="35" viewBox="0 0 40 35" fill="none" xmlns="http://www.w3.org/2000/svg">
<path d="M35.64 4.58324C33.6082 2.54622 30.915 1.30295 28.0468 1.07799C25.1785 0.853027 22.3244 1.66122 20 3.35658C17.5613 1.54272 14.5259 0.720223 11.5051 1.05473C8.48433 1.38924 5.70247 2.8559 3.71974 5.15936C1.73701 7.46283 0.700701 10.432 0.819494 13.4689C0.938287 16.5059 2.20336 19.385 4.35996 21.5266L16.2625 33.4482C17.2592 34.4292 18.6015 34.9789 20 34.9789C21.3984 34.9789 22.7408 34.4292 23.7375 33.4482L35.64 21.5266C37.8778 19.275 39.1339 16.2294 39.1339 13.0549C39.1339 9.88039 37.8778 6.83482 35.64 4.58324V4.58324ZM32.9375 18.8816L21.035 30.7841C20.8995 30.9208 20.7383 31.0294 20.5607 31.1035C20.383 31.1776 20.1924 31.2157 20 31.2157C19.8075 31.2157 19.6169 31.1776 19.4393 31.1035C19.2616 31.0294 19.1004 30.9208 18.965 30.7841L7.06246 18.8241C5.55933 17.2876 4.71763 15.2236 4.71763 13.0741C4.71763 10.9246 5.55933 8.86058 7.06246 7.32408C8.59417 5.8118 10.66 4.96383 12.8125 4.96383C14.9649 4.96383 17.0307 5.8118 18.5625 7.32408C18.7406 7.50372 18.9526 7.64631 19.1862 7.74362C19.4197 7.84093 19.6703 7.89102 19.9233 7.89102C20.1763 7.89102 20.4268 7.84093 20.6604 7.74362C20.894 7.64631 21.1059 7.50372 21.2841 7.32408C22.8158 5.8118 24.8817 4.96383 27.0341 4.96383C29.1866 4.96383 31.2524 5.8118 32.7841 7.32408C34.3079 8.84045 35.1773 10.8933 35.2059 13.0428C35.2346 15.1923 34.4203 17.2676 32.9375 18.8241V18.8816Z" fill="white"/>
</svg>
