<svg width="1" height="795" viewBox="0 0 1 795" fill="none" xmlns="http://www.w3.org/2000/svg">
<mask id="path-1-inside-1_203_470" fill="white">
<path d="M1 0.500014C1 0.223871 0.776142 0 0.5 0C0.223858 0 0 0.223858 0 0.5V795H1V0.500014Z"/>
</mask>
<path d="M1 0.500014C1 0.223871 0.776142 0 0.5 0C0.223858 0 0 0.223858 0 0.5V795H1V0.500014Z" fill="#FF8B87"/>
<path d="M0 795V796H-1V795H0ZM1 795H2V796H1V795ZM1 0.5V795H-1V0.5H1ZM0 794H1V796H0V794ZM0 795V0.500014H2V795H0ZM0.5 1C0.776142 1 1 0.776142 1 0.5H-1C-1 -0.328427 -0.328427 -1 0.5 -1V1ZM0.5 -1C1.32846 -1 2 -0.328377 2 0.500014H0C0 0.77612 0.223822 1 0.5 1V-1Z" fill="#FF8B87" mask="url(#path-1-inside-1_203_470)"/>
</svg>
