<svg width="243" height="261" viewBox="0 0 243 261" fill="none" xmlns="http://www.w3.org/2000/svg">
<path d="M10.0868 206.638C10.0868 206.638 38.6092 212.733 31.1654 197.991C23.7215 183.248 -2.34912 159.734 25.0877 154.585C52.5271 149.426 39.8089 131.85 40.1773 121.612C40.6913 107.399 61.7008 92.9224 93.3829 110.436C125.065 127.95 115.852 147.477 147.528 164.98C179.197 182.48 203.119 157.373 212.26 144.998C221.403 132.614 218.554 109.01 205.077 94.1816C191.6 79.3527 170.92 97.5942 185.477 106.344C200.025 115.092 234.83 102.753 233.991 79.4922C233.159 56.2418 206.251 26.608 189.418 66.2898" stroke="#FF8D8A" stroke-width="1.26" stroke-miterlimit="10" stroke-linecap="round" stroke-linejoin="round"/>
</svg>
