<svg width="243" height="261" viewBox="0 0 243 261" fill="none" xmlns="http://www.w3.org/2000/svg">
<path d="M232.551 206.638C232.551 206.638 204.028 212.733 211.472 197.991C218.916 183.248 244.987 159.734 217.55 154.585C190.111 149.426 202.829 131.85 202.46 121.612C201.946 107.399 180.937 92.9224 149.255 110.436C117.573 127.95 126.786 147.477 95.1094 164.98C63.4411 182.48 39.519 157.373 30.3779 144.998C21.2343 132.614 24.0832 109.01 37.5604 94.1816C51.0377 79.3527 71.7177 97.5942 57.161 106.344C42.6125 115.092 7.80799 102.753 8.64631 79.4922C9.47905 56.2418 36.3868 26.608 53.2194 66.2898" stroke="#FF8D8A" stroke-width="1.26" stroke-miterlimit="10" stroke-linecap="round" stroke-linejoin="round"/>
</svg>
