<svg width="243" height="261" viewBox="0 0 243 261" fill="none" xmlns="http://www.w3.org/2000/svg">
<path d="M232.551 53.5005C232.551 53.5005 204.028 47.405 211.472 62.1473C218.916 76.8897 244.987 100.404 217.55 105.554C190.111 110.712 202.829 128.288 202.46 138.526C201.946 152.74 180.937 167.216 149.255 149.702C117.573 132.189 126.786 112.661 95.1094 95.1581C63.4411 77.6579 39.519 102.765 30.3779 115.14C21.2343 127.524 24.0832 151.128 37.5604 165.957C51.0377 180.786 71.7177 162.544 57.161 153.794C42.6125 145.047 7.80799 157.385 8.64631 180.646C9.47905 203.896 36.3868 233.53 53.2194 193.848" stroke="#FF8D8A" stroke-width="1.26" stroke-miterlimit="10" stroke-linecap="round" stroke-linejoin="round"/>
</svg>
