<svg width="243" height="261" viewBox="0 0 243 261" fill="none" xmlns="http://www.w3.org/2000/svg">
<path d="M10.0868 53.5005C10.0868 53.5005 38.6092 47.405 31.1654 62.1473C23.7215 76.8897 -2.34912 100.404 25.0877 105.554C52.5271 110.712 39.8089 128.288 40.1773 138.526C40.6913 152.74 61.7008 167.216 93.3829 149.702C125.065 132.189 115.852 112.661 147.528 95.1581C179.197 77.6579 203.119 102.765 212.26 115.14C221.403 127.524 218.554 151.128 205.077 165.957C191.6 180.786 170.92 162.544 185.477 153.794C200.025 145.047 234.83 157.385 233.991 180.646C233.159 203.896 206.251 233.53 189.418 193.848" stroke="#FF8D8A" stroke-width="1.26" stroke-miterlimit="10" stroke-linecap="round" stroke-linejoin="round"/>
</svg>
