<svg width="10" height="14" viewBox="0 0 10 14" fill="none" xmlns="http://www.w3.org/2000/svg">
<path d="M4.16649 0.0388803C1.7968 0.471441 0.148054 2.37095 0.141785 4.67795C0.141785 5.28604 0.160592 5.39261 0.398814 6.08847C0.536732 6.50223 0.793761 7.14793 0.963024 7.53034C1.27021 8.20113 4.61786 13.9686 4.72443 14C4.79966 14.0188 8.52972 7.97544 8.91212 7.21062C9.09393 6.85329 9.33842 6.28281 9.45126 5.94428C9.63306 5.40515 9.65814 5.26096 9.65814 4.67795C9.65187 2.57783 8.24134 0.747278 6.18511 0.16426C5.65851 0.0200729 4.63039 -0.0488863 4.16649 0.0388803ZM5.37641 1.91958C6.17257 2.07004 6.91231 2.61544 7.29472 3.34265C8.18492 5.00393 7.11919 7.0539 5.23222 7.32973C4.09126 7.49273 2.90015 6.84075 2.39863 5.78129C1.45201 3.78148 3.20106 1.5121 5.37641 1.91958Z" fill="white"/>
</svg>
