<svg width="121" height="82" viewBox="0 0 121 82" fill="none" xmlns="http://www.w3.org/2000/svg">
<path d="M22.002 10.9951C22.002 13.8564 20.9668 16.3223 18.8965 18.3926C16.8262 20.4434 14.3604 21.4688 11.499 21.4688C8.62793 21.4688 6.16211 20.4434 4.10156 18.3926C2.03125 16.3223 0.996094 13.8564 0.996094 10.9951C0.996094 8.14355 2.03125 5.68262 4.10156 3.6123C6.17188 1.54199 8.6377 0.506836 11.499 0.506836C14.3604 0.506836 16.8262 1.54199 18.8965 3.6123C20.9668 5.68262 22.002 8.14355 22.002 10.9951ZM18.999 10.9951C18.999 8.94434 18.2617 7.18164 16.7871 5.70703C15.3125 4.23242 13.5498 3.49512 11.499 3.49512C9.44824 3.49512 7.68555 4.23242 6.21094 5.70703C4.73633 7.18164 3.99902 8.94434 3.99902 10.9951C3.99902 13.0459 4.73633 14.8086 6.21094 16.2832C7.68555 17.7578 9.44824 18.4951 11.499 18.4951C13.5498 18.4951 15.3125 17.7578 16.7871 16.2832C18.2617 14.8086 18.999 13.0459 18.999 10.9951ZM35.127 12.2549C35.127 11.2393 34.7559 10.3604 34.0137 9.61816C33.2715 8.87598 32.3926 8.50488 31.377 8.50488C30.3613 8.50488 29.4824 8.87598 28.7402 9.61816C27.998 10.3604 27.627 11.2393 27.627 12.2549V21.2197H24.624V12.2549C24.624 10.4678 25.3027 8.89551 26.6602 7.53809C28.0176 6.18066 29.5898 5.50195 31.377 5.50195C33.1543 5.50195 34.7217 6.18066 36.0791 7.53809C37.4463 8.90527 38.1299 10.4775 38.1299 12.2549V21.2197H35.127V12.2549ZM56.7627 19.5059C56.7627 21.6738 55.9717 23.5391 54.3896 25.1016C52.8174 26.6836 50.9375 27.4746 48.75 27.4746C47.3926 27.4746 46.1035 27.1279 44.8828 26.4346C44.2676 26.0928 43.7158 25.6875 43.2275 25.2188C42.749 24.7598 42.3145 24.2373 41.9238 23.6514L44.458 21.9961C45.5518 23.6465 46.9824 24.4717 48.75 24.4717C50.2344 24.4717 51.4209 23.9834 52.3096 23.0068C53.1396 22.0889 53.6133 20.8877 53.7305 19.4033C52.2461 20.7803 50.5029 21.4688 48.501 21.4688C46.3525 21.4688 44.5215 20.6826 43.0078 19.1104C41.5039 17.5479 40.752 15.6777 40.752 13.5C40.752 11.3125 41.5381 9.43262 43.1104 7.86035C44.7119 6.28809 46.5918 5.50195 48.75 5.50195C50.9375 5.50195 52.8174 6.28809 54.3896 7.86035C55.9717 9.43262 56.7627 11.3125 56.7627 13.5V19.5059ZM53.7598 13.5C53.7598 12.1426 53.2666 10.9707 52.2803 9.98438C51.2939 8.99805 50.1172 8.50488 48.75 8.50488C47.3828 8.50488 46.2061 8.99805 45.2197 9.98438C44.2432 10.9609 43.7549 12.1328 43.7549 13.5C43.7549 14.877 44.2432 16.0537 45.2197 17.0303C46.1963 18.0068 47.373 18.4951 48.75 18.4951C50.127 18.4951 51.3037 18.0068 52.2803 17.0303C53.2666 16.0439 53.7598 14.8672 53.7598 13.5ZM17.9443 67.1719C17.2119 66.0586 16.2793 65.1699 15.1465 64.5059C14.0137 63.832 12.7979 63.4951 11.499 63.4951C9.44824 63.4951 7.68555 64.2324 6.21094 65.707C4.73633 67.1816 3.99902 68.9443 3.99902 70.9951C3.99902 73.0459 4.73633 74.8086 6.21094 76.2832C7.68555 77.7578 9.44824 78.4951 11.499 78.4951C12.7979 78.4951 14.0234 78.1533 15.1758 77.4697C16.2891 76.8252 17.207 75.9512 17.9297 74.8477L20.4492 76.5029C19.4727 78.0264 18.1787 79.2373 16.5674 80.1357C15.0049 81.0244 13.3154 81.4688 11.499 81.4688C8.62793 81.4688 6.16211 80.4434 4.10156 78.3926C2.03125 76.3223 0.996094 73.8564 0.996094 70.9951C0.996094 68.1436 2.03125 65.6826 4.10156 63.6123C6.17188 61.542 8.6377 60.5068 11.499 60.5068C13.2861 60.5068 14.9951 60.9609 16.626 61.8691C18.1787 62.7773 19.4629 64.0029 20.4785 65.5459L17.9443 67.1719ZM35.3906 79.374C33.9062 80.7705 32.1533 81.4688 30.1318 81.4688C27.9834 81.4688 26.1523 80.6826 24.6387 79.1104C23.1348 77.5479 22.3828 75.6777 22.3828 73.5C22.3828 71.3027 23.1641 69.4229 24.7266 67.8604C26.2988 66.2881 28.1836 65.502 30.3809 65.502C32.5781 65.502 34.4629 66.2881 36.0352 67.8604C37.6074 69.4326 38.3936 71.3125 38.3936 73.5V81.2197H35.3906V79.374ZM35.3906 73.5C35.3906 72.1426 34.8975 70.9707 33.9111 69.9844C32.9248 68.998 31.748 68.5049 30.3809 68.5049C29.0137 68.5049 27.8369 68.998 26.8506 69.9844C25.874 70.9609 25.3857 72.1328 25.3857 73.5C25.3857 74.877 25.874 76.0537 26.8506 77.0303C27.8271 78.0068 29.0039 78.4951 30.3809 78.4951C31.7578 78.4951 32.9346 78.0068 33.9111 77.0303C34.8975 76.0439 35.3906 74.8672 35.3906 73.5ZM45.8936 81.2197H42.8906V68.7539H40.4004V65.751H42.8906V60.7559H45.8936V65.751H48.3984V68.7539H45.8936V81.2197ZM60.2783 76.8984C60.2783 78.168 59.8193 79.2471 58.9014 80.1357C57.9834 81.0244 56.8945 81.4688 55.6348 81.4688C54.5215 81.4688 53.5449 81.1221 52.7051 80.4287C51.8652 79.7256 51.3232 78.8174 51.0791 77.7041L53.9795 76.9277C54.1748 77.9727 54.7266 78.4951 55.6348 78.4951C56.0645 78.4951 56.4502 78.3389 56.792 78.0264C57.1338 77.7041 57.3047 77.3281 57.3047 76.8984C57.3047 76.1855 56.7627 75.5947 55.6787 75.126C53.9307 74.3447 52.9248 73.8516 52.6611 73.6465C51.5771 72.8457 51.0352 71.6787 51.0352 70.1455C51.0352 68.8955 51.4893 67.8066 52.3975 66.8789C53.3154 65.9609 54.4092 65.502 55.6787 65.502C56.8018 65.502 57.7783 65.8584 58.6084 66.5713C59.4092 67.2549 59.9414 68.1582 60.2051 69.2812L57.2754 70.043C57.0508 69.0176 56.5186 68.5049 55.6787 68.5049C55.2393 68.5049 54.8535 68.6709 54.5215 69.0029C54.1895 69.335 54.0234 69.7158 54.0234 70.1455C54.0234 70.8486 54.5654 71.4395 55.6494 71.918C56.5088 72.2891 57.1826 72.6016 57.6709 72.8555C58.1689 73.0996 58.4961 73.2803 58.6523 73.3975C59.7363 74.2178 60.2783 75.3848 60.2783 76.8984Z" fill="#1A1442"/>
<path d="M9.62402 51.2197H6.62109V33.7441H0.380859V30.7559H15.8789V33.7441H9.62402V51.2197ZM18.5156 35.751H21.5039V51.2197H18.5156V35.751ZM18.5156 30.7559H21.5039V33.7441H18.5156V30.7559ZM35.8887 42.2549C35.8887 41.2393 35.5176 40.3604 34.7754 39.6182C34.0332 38.876 33.1543 38.5049 32.1387 38.5049C31.123 38.5049 30.2441 38.876 29.502 39.6182C28.7598 40.3604 28.3887 41.2393 28.3887 42.2549V51.2197H25.3857V42.2549C25.3857 40.4678 26.0645 38.8955 27.4219 37.5381C28.7793 36.1807 30.3516 35.502 32.1387 35.502C33.916 35.502 35.4834 36.1807 36.8408 37.5381C38.208 38.9053 38.8916 40.4775 38.8916 42.2549V51.2197H35.8887V42.2549ZM42.7734 35.751H45.7617V51.2197H42.7734V35.751ZM42.7734 30.7559H45.7617V33.7441H42.7734V30.7559ZM65.0244 43.2949C65.0049 45.5703 64.2334 47.499 62.71 49.0811C61.1865 50.6729 59.2969 51.4688 57.041 51.4688C54.8145 51.4688 52.9199 50.7021 51.3574 49.1689C49.7949 47.6357 49.0137 45.7559 49.0137 43.5293C49.0137 41.3223 49.79 39.4326 51.3428 37.8604C52.8955 36.2881 54.7803 35.502 56.9971 35.502C58.6182 35.502 60.0977 35.9512 61.4355 36.8496C62.7734 37.748 63.7744 38.9541 64.4385 40.4678L53.8477 47.3525C54.7949 48.1143 55.8594 48.4951 57.041 48.4951C58.4668 48.4951 59.6436 47.9873 60.5713 46.9717C61.499 45.9561 61.9727 44.7305 61.9922 43.2949H65.0244ZM60.1904 39.6475C59.2334 38.8857 58.1689 38.5049 56.9971 38.5049C55.6104 38.5049 54.4336 38.998 53.4668 39.9844C52.5 40.9707 52.0166 42.1523 52.0166 43.5293C52.0166 43.9004 52.085 44.3301 52.2217 44.8184L60.1904 39.6475Z" fill="#FF8B87"/>
<path d="M85.0342 45.375C85.0342 46.9668 84.4531 48.3438 83.291 49.5059C82.1289 50.6484 80.752 51.2197 79.1602 51.2197H68.291V30.7559H78.6621C80.2539 30.7559 81.6309 31.3369 82.793 32.499C83.9551 33.6611 84.5361 35.0381 84.5361 36.6299C84.5361 38.4072 83.8281 39.8135 82.4121 40.8486C84.1602 41.8643 85.0342 43.373 85.0342 45.375ZM82.0312 45.375C82.0312 44.5938 81.748 43.9199 81.1816 43.3535C80.6152 42.7871 79.9414 42.5039 79.1602 42.5039H71.2793V48.2461H79.1602C79.9316 48.2461 80.6006 47.9629 81.167 47.3965C81.7432 46.8203 82.0312 46.1465 82.0312 45.375ZM81.5332 36.6299C81.5332 35.8389 81.25 35.1602 80.6836 34.5938C80.1172 34.0273 79.4434 33.7441 78.6621 33.7441H71.2793V39.501H78.6621C79.4434 39.501 80.1172 39.2178 80.6836 38.6514C81.25 38.085 81.5332 37.4111 81.5332 36.6299ZM89.5605 35.751H92.5488V51.2197H89.5605V35.751ZM89.5605 30.7559H92.5488V33.7441H89.5605V30.7559ZM103.433 38.5049C102.319 38.5049 101.377 38.8613 100.605 39.5742C99.8242 40.2773 99.4336 41.1709 99.4336 42.2549V51.2197H96.4307V42.2549C96.4307 40.3994 97.1289 38.8174 98.5254 37.5088C99.9316 36.1904 101.567 35.5215 103.433 35.502V38.5049ZM120.806 43.5C120.806 45.6875 120.02 47.5674 118.447 49.1396C116.875 50.6924 114.99 51.4688 112.793 51.4688C110.586 51.4688 108.701 50.6924 107.139 49.1396C105.576 47.5771 104.795 45.6973 104.795 43.5C104.795 41.3125 105.547 39.4375 107.051 37.875C108.555 36.293 110.386 35.502 112.544 35.502C114.575 35.502 116.328 36.21 117.803 37.626V30.7559H120.806V43.5ZM117.803 43.5C117.803 42.1426 117.31 40.9707 116.323 39.9844C115.337 38.998 114.16 38.5049 112.793 38.5049C111.426 38.5049 110.249 38.998 109.263 39.9844C108.286 40.9609 107.798 42.1328 107.798 43.5C107.798 44.877 108.286 46.0537 109.263 47.0303C110.239 48.0068 111.416 48.4951 112.793 48.4951C114.17 48.4951 115.347 48.0068 116.323 47.0303C117.31 46.0439 117.803 44.8672 117.803 43.5Z" fill="#1268AE"/>
</svg>
