<svg width="98" height="90" viewBox="0 0 98 90" fill="none" xmlns="http://www.w3.org/2000/svg">
<path d="M29.508 1.12561C22.5596 4.7851 19.734 17.4312 23.8567 26.5567C26.5434 32.5323 33.0749 35.3117 39.4211 33.1345C45.2114 31.1426 47.4812 23.9163 45.5356 13.7254C44.3776 7.70342 42.2004 3.67336 38.7262 1.31091C36.2248 -0.356709 32.519 -0.449352 29.508 1.12561Z" fill="white"/>
<path d="M59.6177 0.988464C54.9391 3.44356 51.7429 11.1794 51.6966 20.2586C51.6502 29.0136 54.7538 33.1826 61.7022 33.7385C70.2256 34.4334 75.8769 27.9482 75.8769 17.433C75.8769 9.55814 72.9586 3.5362 67.9095 0.942139C65.6396 -0.215923 61.8412 -0.169601 59.6177 0.988464Z" fill="white"/>
<path d="M6.39316 21.8785C4.72555 22.527 2.73368 24.5652 1.66826 26.696C0.463873 28.9658 0.0469702 34.1539 0.788131 37.5355C1.9462 43.0479 5.97626 48.8382 9.86735 50.5984C12.0908 51.6175 15.7966 51.7102 18.3444 50.8301C26.4972 47.9581 27.2846 39.5737 20.4289 29.1511C16.2599 22.8512 10.9328 20.0719 6.39316 21.8785Z" fill="white"/>
<path d="M83.9371 22.7132C78.2857 26.0021 72.5881 35.6372 72.6344 41.9371C72.6807 48.5149 79.9997 53.0545 87.087 50.9237C93.9891 48.8855 99.4088 36.61 97 28.5962C95.0545 22.25 89.3105 19.6559 83.9371 22.7132Z" fill="white"/>
<path d="M44.6093 37.0269C41.5983 38.4629 40.0233 40.0842 35.4837 46.523C32.3801 50.8773 29.2302 54.5368 24.3663 59.447C16.2599 67.6461 14.5459 70.3791 14.5459 75.5209C14.4996 80.0142 15.7503 83.1178 18.6686 86.0361C20.4752 87.8427 21.7259 88.6302 23.5325 89.1861C27.2846 90.2978 33.4918 90.1125 39.2822 88.7692C45.9989 87.1942 51.9282 87.1942 58.8766 88.8155C63.1846 89.7883 64.8985 89.9736 68.9286 89.8346C73.0976 89.6956 74.1631 89.464 76.1549 88.3986C80.6482 86.0825 83.2886 81.4039 83.2886 75.6599C83.2886 70.4254 81.8063 68.0167 73.2366 59.1691C68.3727 54.2125 64.7596 49.9972 62.4898 46.7083C56.7458 38.3239 54.6149 36.6563 49.4731 36.332C47.2033 36.1931 45.9989 36.3784 44.6093 37.0269Z" fill="white"/>
</svg>
