<svg width="169" height="122" viewBox="0 0 169 122" fill="none" xmlns="http://www.w3.org/2000/svg">
<path fill-rule="evenodd" clip-rule="evenodd" d="M161.355 121.009C161.538 120.641 163.263 116.75 165.186 112.361C167.834 106.319 168.611 104.196 168.382 103.617C168.023 102.708 166.193 102.046 165.339 102.518C165.007 102.702 163.956 104.667 163.005 106.885C162.053 109.104 161.173 110.896 161.049 110.869C160.926 110.842 160.584 109.703 160.289 108.338C159.376 104.108 155.929 92.2752 154.28 87.7056C151.984 81.3472 147.982 72.3217 144.883 66.5168C141.598 60.3617 134.147 49.4398 129.709 44.275C114.762 26.8782 96.1101 14.9204 71.9692 7.2566C65.737 5.27802 46.724 1.83358 39.2737 1.33344C28.0152 0.577596 17.0738 0.790828 6.72543 1.96683C1.683 2.53992 0.567706 2.96456 0.295275 4.41467C-0.110321 6.57361 1.18868 6.97297 6.29882 6.25935C15.268 5.00655 27.7622 4.71253 39.1196 5.48612C47.5403 6.05976 64.9162 9.32041 72.1798 11.6896C114.995 25.6566 142.575 56.521 154.969 104.335C155.934 108.056 156.657 111.149 156.576 111.207C156.496 111.265 155.078 110 153.425 108.395C151.21 106.245 150.186 105.507 149.53 105.586C148.424 105.72 147.461 106.861 147.588 107.888C147.66 108.473 155.173 116.207 160.599 121.282C160.856 121.522 161.152 121.416 161.355 121.009Z" fill="#1268AE"/>
</svg>
