<svg width="78" height="78" viewBox="0 0 78 78" fill="none" xmlns="http://www.w3.org/2000/svg">
<circle cx="39" cy="39" r="39" fill="#FF8D8A"/>
<path d="M43.4699 19.2893C42.5203 19.8353 41.998 21.8532 42.3778 23.5862C42.9476 26.2925 45.464 26.5774 46.5323 24.0373C46.8172 23.3725 46.8172 23.0164 46.5798 22.0194C45.9863 19.4318 44.8705 18.4584 43.4699 19.2893Z" fill="white"/>
<path d="M37.986 20.4763C36.4904 21.3309 36.5379 25.8177 38.0097 26.6011C38.9118 27.0759 39.719 26.9098 40.5736 26.0551C41.1671 25.4616 41.3808 25.0343 41.3808 24.4646C41.3808 23.42 40.6686 21.2597 40.1463 20.6899C39.6715 20.1677 38.6744 20.0727 37.986 20.4763Z" fill="white"/>
<path d="M48.5738 23.8947C47.6243 24.2983 47.0782 25.3428 47.0782 26.7909C47.0782 29.7821 50.1407 31.0166 51.4226 28.5239C52.1585 27.0995 51.4938 24.3695 50.2594 23.7997C49.5234 23.4674 49.5234 23.4674 48.5738 23.8947Z" fill="white"/>
<path d="M32.8344 25.3666C30.9115 27.0759 32.3359 30.8979 34.8523 30.8979C35.8493 30.8979 36.8701 29.711 36.8701 28.5715C36.8701 27.3133 36.3241 26.1025 35.4458 25.3429C34.4962 24.5594 33.7365 24.5594 32.8344 25.3666Z" fill="white"/>
<path d="M41.1671 28.2154C41.0009 28.2866 39.6715 29.5211 38.2471 30.9455L36.7289 32.4636C36.0338 33.1588 35.6703 34.1187 35.7307 35.0999C35.8257 36.5006 35.9206 36.7379 36.5853 37.3314C37.5349 38.1861 38.1996 38.1861 39.719 37.4027C41.2383 36.6193 42.4728 36.6193 44.0159 37.4027C45.3928 38.1386 46.105 38.1861 46.8884 37.5451C47.743 36.9041 48.0991 35.8358 47.9804 34.4827C47.8617 33.3906 47.7667 33.2245 45.3928 30.898C42.449 28.0017 42.1642 27.8118 41.1671 28.2154Z" fill="white"/>
<path d="M55.7195 41.3197C55.0311 41.5571 53.5354 42.3879 52.3722 43.1239C50.3068 44.4533 50.2831 44.5008 50.2831 45.4266C50.2831 47.2309 49.0012 47.6344 44.6093 47.2546C41.7843 47.0172 40.6685 47.0884 38.9355 47.5869C37.6536 47.943 37.2263 47.4682 38.3183 46.8748C39.0305 46.4949 39.7189 46.4474 43.9921 46.4474C46.6747 46.4474 49.0012 46.3525 49.1673 46.2575C49.3098 46.1388 49.4522 45.759 49.4522 45.3792C49.4522 44.4533 48.7875 44.0497 46.8408 43.7174C44.4194 43.3375 41.1908 42.7678 39.2441 42.3879C37.0126 41.9606 35.0897 42.2218 32.9294 43.2188L31.41 43.931V47.5869V51.2429L34.0926 51.1479C36.3479 51.0529 37.1788 51.1242 39.5528 51.6464C41.0958 51.9788 42.6152 52.2637 42.9001 52.2637C43.5885 52.2637 48.0753 50.0796 50.6392 48.4891C54.8886 45.8539 57.9985 42.9814 57.9985 41.6995C57.9985 41.2247 57.5712 40.8449 57.0964 40.8686C57.0014 40.8923 56.3842 41.0823 55.7195 41.3197Z" fill="white"/>
<path d="M25.5226 42.4355C25.0003 42.7916 25.0003 42.9103 25.0003 47.7532C25.0003 53.6643 24.9054 53.4507 27.8728 53.4507C30.6267 53.4507 30.5792 53.5456 30.5792 47.7057C30.5792 43.0052 30.5792 42.9577 30.0094 42.5067C29.2972 41.9132 26.3298 41.8657 25.5226 42.4355Z" fill="white"/>
</svg>
