<svg width="78" height="78" viewBox="0 0 78 78" fill="none" xmlns="http://www.w3.org/2000/svg">
<circle cx="39" cy="39" r="39" fill="#FF8D8A"/>
<path d="M25.8039 27.132C26.071 27.2964 26.2148 27.6046 26.3107 28.221C26.3655 28.584 26.4614 28.7963 26.7764 29.3031C27.6873 30.7551 29.0297 32.2824 30.0023 32.9741C30.5639 33.3714 31.2214 33.6864 31.7214 33.7891C32.0638 33.8576 32.1186 33.8576 32.2967 33.7275C32.6186 33.5015 33.009 33.4056 33.6391 33.4056C33.961 33.3988 34.2144 33.3782 34.2007 33.3577C34.1527 33.2755 33.5706 33.159 33.235 33.159C33.0569 33.159 32.7076 33.2207 32.461 33.3029C32.0775 33.4261 31.9748 33.433 31.7282 33.3714C31.4063 33.2823 31.2693 33.1248 31.0228 32.5426C30.6529 31.6728 30.831 30.3441 31.3036 30.4674C31.5227 30.5291 32.1391 30.1729 32.4473 29.8099C32.598 29.6318 32.8309 29.4332 32.961 29.3716C33.324 29.1935 34.0158 29.125 34.6253 29.1935L35.1664 29.2552L35.5431 28.8579C35.7485 28.6456 36.1595 28.2073 36.454 27.8991C36.9745 27.3443 36.995 27.3306 37.1252 27.447C37.3375 27.6388 37.6525 28.3374 37.7005 28.7346C37.7553 29.1524 37.6251 29.7483 37.3717 30.2619C37.2279 30.5633 37.221 30.6181 37.2964 30.8647C37.4471 31.3441 37.4128 31.9468 37.2142 32.4262C37.0567 32.796 37.0361 32.9193 37.0704 33.3371C37.1594 34.5699 37.9676 35.9534 39.1114 36.8301C39.3374 37.0013 39.9606 37.3711 40.488 37.6519C41.8235 38.3505 42.529 38.8436 43.2207 39.5285C44.5768 40.8846 45.3987 42.7064 45.7822 45.2132C45.8438 45.6104 45.9123 46.6035 45.9329 47.4185C45.9534 48.2404 45.9945 48.9116 46.0219 48.9116C46.0493 48.9116 46.2753 48.6993 46.5219 48.439C47.3232 47.6103 47.6246 46.6651 47.467 45.5008C47.2616 44.0283 46.652 42.816 44.385 39.3573C43.2413 37.6177 42.4057 35.6863 42.1454 34.1864C41.9948 33.3029 42.0427 31.8988 42.255 31.1729C42.5084 30.2825 42.8988 29.6387 43.5905 28.9401C44.1385 28.3785 44.2891 28.2758 44.9261 27.9676C45.3233 27.7826 45.8575 27.5772 46.111 27.5155C48.3232 26.9813 50.7682 27.7895 52.227 29.5291C52.9804 30.4195 53.6105 31.844 53.5215 32.4536C53.4119 33.1864 52.638 33.6933 51.9188 33.5015C51.5011 33.3919 51.1244 33.0221 50.9805 32.5906C50.6997 31.7071 50.0628 30.8715 49.3642 30.4606C48.3711 29.8784 47.1588 29.7962 46.1863 30.2414C45.7411 30.4469 45.1658 30.9674 44.9809 31.3441C44.3439 32.5769 44.6247 34.4535 45.7548 36.5698C45.9397 36.926 46.4876 37.8163 46.9739 38.556C49.5902 42.5832 50.1998 44.0899 50.1107 46.3775C50.0696 47.5075 49.9121 48.1513 49.4669 49.0417C48.9327 50.1101 48.0903 50.8498 46.9808 51.2128C46.6315 51.3292 46.2274 51.3429 41.892 51.3635L37.1868 51.384V51.1649C37.1868 50.6512 37.6183 50.1512 38.2484 49.9321C38.7415 49.7608 40.1798 49.8567 40.9195 50.1101C40.9948 50.1375 40.6729 49.9595 40.2003 49.7197C38.7826 49.0006 37.8785 48.2883 37.3238 47.4596C35.9951 45.4734 37.2621 43.2955 39.7483 43.2955C40.1935 43.2955 40.5222 43.3365 40.8236 43.4324C41.0633 43.5009 41.2688 43.5489 41.2825 43.5352C41.3373 43.4872 40.4674 43.09 40.0839 42.9873C39.6387 42.8708 38.7963 42.8571 38.358 42.9599C37.4882 43.1585 36.6457 43.8365 36.3649 44.5762C36.2006 44.994 36.1458 45.7542 36.2485 46.1241C36.2964 46.2953 36.2896 46.309 36.18 46.2473C35.9471 46.1241 34.8924 45.131 34.3924 44.5762C33.4336 43.5009 32.5912 42.0832 32.1939 40.8983C32.0159 40.3367 31.8446 39.4738 31.8446 39.0834C31.8446 38.7889 31.8446 38.782 31.1734 38.2889C30.2625 37.604 28.6325 35.9671 27.9545 35.0493C26.2422 32.7276 25.2354 30.1729 25.0231 27.6251C24.982 27.0977 24.982 27.084 25.1395 27.043C25.4135 26.9676 25.5642 26.9882 25.8039 27.132Z" fill="white"/>
<path d="M31.92 41.4941C32.3446 42.6036 33.4884 44.309 34.6664 45.5692C35.1116 46.0418 35.0979 45.9459 34.8034 46.8705C34.365 48.2129 34.1459 49.3224 34.002 50.9114L33.9541 51.3771H32.324C30.5022 51.3771 30.5707 51.3976 30.6529 50.8908C30.7351 50.3771 31.1871 49.9183 31.7008 49.8292C31.8378 49.8087 31.9816 49.7813 32.0227 49.7676C32.1254 49.7402 32.2076 47.3705 32.1528 45.9801C32.1254 45.3911 32.0501 44.3501 31.9816 43.672C31.8309 42.2269 31.7693 41.3092 31.8172 41.3092C31.8309 41.3092 31.8789 41.3913 31.92 41.4941Z" fill="white"/>
</svg>
