<svg width="80" height="80" viewBox="0 0 80 80" fill="none" xmlns="http://www.w3.org/2000/svg">
<rect y="80" width="80" height="80" rx="40" transform="rotate(-90 0 80)" fill="#267800"/>
<path d="M47.2869 41.1261C47.2244 41.0963 44.9019 39.9519 44.4893 39.8041C44.3171 39.7331 44.1339 39.6925 43.9478 39.6841C43.7885 39.687 43.6326 39.7311 43.4954 39.8123C43.3583 39.8935 43.2445 40.0089 43.1654 40.1473C42.9333 40.4924 42.2312 41.3135 42.014 41.5585C41.9853 41.5912 41.9466 41.6299 41.9238 41.6299C41.901 41.6299 41.544 41.4821 41.4349 41.4315C39.5579 40.4793 37.9586 39.0586 36.7918 37.307C36.773 37.2791 36.7598 37.2478 36.7531 37.2148C36.7906 37.1551 36.8363 37.1011 36.889 37.0542C37.0159 36.9292 37.1527 36.7636 37.2856 36.6039C37.3481 36.5286 37.4116 36.4522 37.4731 36.3808C37.6265 36.2013 37.7537 36.001 37.8509 35.7858L37.9025 35.6817C37.9813 35.5222 38.0197 35.3458 38.0141 35.168C38.0086 34.9902 37.9594 34.8164 37.8707 34.6622C37.8162 34.5521 36.8344 32.183 36.7303 31.936C36.4794 31.336 36.1482 31.0564 35.688 31.0564C35.6454 31.0564 35.688 31.0564 35.5085 31.0643C34.84 31.112 34.1855 31.28 33.5767 31.5602C33.0673 31.9697 32.6648 32.4966 32.4037 33.0958C32.1425 33.6949 32.0305 34.3484 32.0772 35.0004C32.1891 36.492 32.7494 37.9149 33.6848 39.0822C33.6967 39.0981 33.7185 39.1308 33.7512 39.1814C35.3247 41.6475 37.5792 43.6047 40.2419 44.8162C41.4717 45.4 42.8029 45.7405 44.162 45.8188C44.3751 45.8173 44.588 45.8047 44.7997 45.7811L44.9138 45.7702C45.5135 45.6648 46.0825 45.4279 46.5798 45.0764C47.0771 44.7248 47.4903 44.2675 47.7897 43.7372C48.0888 43.0729 48.1535 42.3268 47.9731 41.6209C47.798 41.3922 47.5593 41.22 47.2869 41.1261Z" fill="white"/>
<path d="M40.3491 22.0001C36.2151 21.9892 32.2457 23.6186 29.3116 26.5308C26.3775 29.443 24.7183 33.4001 24.6981 37.534C24.6966 40.2974 25.4378 43.0104 26.8442 45.3892L24.1557 53.3228C24.1309 53.3953 24.1267 53.4733 24.1437 53.5481C24.1607 53.6229 24.1981 53.6915 24.2518 53.7462C24.3055 53.801 24.3734 53.8397 24.4478 53.8581C24.5222 53.8765 24.6003 53.8738 24.6733 53.8503L32.9421 51.2233C35.3199 52.4928 37.9848 53.1277 40.6796 53.0668C43.3743 53.0058 46.0078 52.251 48.3257 50.8752C50.6437 49.4995 52.5677 47.5493 53.912 45.213C55.2563 42.8767 55.9754 40.2333 56 37.5379C55.9811 33.4033 54.3225 29.445 51.3882 26.5319C48.454 23.6188 44.4838 21.989 40.3491 22.0001ZM40.3491 49.83C37.9252 49.8336 35.5534 49.1264 33.5272 47.796C33.4758 47.7623 33.4176 47.7404 33.3567 47.732C33.2958 47.7236 33.2338 47.7289 33.1751 47.7475L29.0338 49.0644L30.3706 45.1195C30.3918 45.0566 30.3976 44.9895 30.3874 44.9239C30.3772 44.8583 30.3514 44.7961 30.3121 44.7426C28.7749 42.6539 27.9477 40.1274 27.9519 37.534C27.9322 35.0781 28.6425 32.6718 29.9926 30.6202C31.3428 28.5687 33.2718 26.9644 35.5351 26.0109C37.7985 25.0575 40.294 24.7978 42.7051 25.2648C45.1162 25.7319 47.3343 26.9046 49.0778 28.6342C50.8214 30.3639 52.0119 32.5724 52.4983 34.9797C52.9847 37.387 52.7451 39.8845 51.8099 42.1554C50.8746 44.4263 49.2859 46.3682 47.2452 47.7348C45.2046 49.1013 42.804 49.8309 40.3481 49.831L40.3491 49.83Z" fill="white"/>
</svg>
